<svg id="Layer_1" data-name="Layer 1" xmlns="http://www.w3.org/2000/svg" xmlns:xlink="http://www.w3.org/1999/xlink" viewBox="0 0 475.69 229.39"><defs><style>.cls-1{fill:url(#linear-gradient);}.cls-2{fill:url(#linear-gradient-2);}.cls-3{fill:url(#linear-gradient-3);}.cls-4{fill:url(#linear-gradient-4);}.cls-5{fill:url(#linear-gradient-5);}.cls-6{fill:url(#linear-gradient-6);}.cls-7{fill:url(#linear-gradient-7);}.cls-8{fill:url(#linear-gradient-8);}</style><linearGradient id="linear-gradient" x1="252.31" y1="175" x2="52.03" y2="-25.27" gradientUnits="userSpaceOnUse"><stop offset="0" stop-color="#72a7f9" stop-opacity="0"/><stop offset="1" stop-color="#72a7f9"/></linearGradient><linearGradient id="linear-gradient-2" x1="728.63" y1="350.17" x2="465.42" y2="86.96" xlink:href="#linear-gradient"/><linearGradient id="linear-gradient-3" x1="335.87" y1="177.73" x2="236.48" y2="78.35" xlink:href="#linear-gradient"/><linearGradient id="linear-gradient-4" x1="568.6" y1="272.04" x2="658.43" y2="272.04" gradientUnits="userSpaceOnUse"><stop offset="0" stop-color="#72a7f9"/><stop offset="1" stop-color="#5574fa"/></linearGradient><linearGradient id="linear-gradient-5" x1="642.65" y1="330.46" x2="556.7" y2="244.51" gradientUnits="userSpaceOnUse"><stop offset="0" stop-color="#3894f9"/><stop offset="1" stop-color="#225cbd"/></linearGradient><linearGradient id="linear-gradient-6" x1="-614.5" y1="272.04" x2="-524.66" y2="272.04" gradientTransform="matrix(-1, 0, 0, 1, 291.56, 0)" xlink:href="#linear-gradient-4"/><linearGradient id="linear-gradient-7" x1="-540.44" y1="330.46" x2="-626.39" y2="244.51" gradientTransform="matrix(-1, 0, 0, 1, 291.56, 0)" xlink:href="#linear-gradient-5"/><linearGradient id="linear-gradient-8" x1="742.98" y1="312.33" x2="731.37" y2="229.61" xlink:href="#linear-gradient-4"/></defs><polygon class="cls-1" points="216.56 3.68 442.27 229.39 171.12 229.39 121.75 180.02 216.56 3.68"/><path class="cls-2" d="M655.81,182.84,601,269.37l43.84,91.53,49.37,49.37h189Z" transform="translate(-568.6 -180.88)"/><polygon class="cls-3" points="337.46 91.16 475.69 229.39 299.36 229.39 249.98 180.02 337.46 91.16"/><path class="cls-4" d="M568.6,272l75.82-88.36a8,8,0,0,1,14,5.19v20.79a23.72,23.72,0,0,1-5.72,15.45L612.44,272,652.71,319a23.72,23.72,0,0,1,5.72,15.45v20.79a8,8,0,0,1-14,5.19Z" transform="translate(-568.6 -180.88)"/><path class="cls-5" d="M568.6,272l75.82,88.36a8,8,0,0,0,14-5.19V334.42A23.72,23.72,0,0,0,652.71,319L612.44,272Z" transform="translate(-568.6 -180.88)"/><path class="cls-6" d="M906.06,272l-75.83-88.36a8,8,0,0,0-14,5.19v20.79a23.72,23.72,0,0,0,5.72,15.45L862.21,272,821.94,319a23.72,23.72,0,0,0-5.72,15.45v20.79a8,8,0,0,0,14,5.19Z" transform="translate(-568.6 -180.88)"/><path class="cls-7" d="M906.06,272,830.23,360.4a8,8,0,0,1-14-5.19V334.42A23.72,23.72,0,0,1,821.94,319L862.21,272Z" transform="translate(-568.6 -180.88)"/><path class="cls-8" d="M751.34,185l-62,169.84a6.23,6.23,0,0,0,5.85,8.36h22.3a6.23,6.23,0,0,0,5.85-4.09l62-169.84a6.22,6.22,0,0,0-5.84-8.36h-22.3A6.23,6.23,0,0,0,751.34,185Z" transform="translate(-568.6 -180.88)"/></svg>